<svg width="453" height="420" viewBox="0 0 453 420" fill="none" xmlns="http://www.w3.org/2000/svg">
    <mask id="mask0" mask-type="alpha" maskUnits="userSpaceOnUse" x="0" y="0" width="453" height="420">
        <rect y="0.638672" width="453" height="419.361" fill="#C4C4C4"/>
    </mask>
    <g mask="url(#mask0)">
        <g clip-path="url(#clip0)">
            <path d="M160.777 371.806C160.777 371.806 109.29 434.117 112.953 475.673C116.616 517.229 159.297 529.517 237.857 528.6C237.857 528.6 240.159 590.934 280.955 691.763C280.955 691.763 299.888 695.42 323.152 691.763C323.152 691.763 342.844 693.749 357.473 691.667C357.473 691.667 388.665 487.798 384.873 467.121C379.849 439.721 280.561 415.004 254.86 409.069L233.373 371.806C233.373 371.806 190.231 377.286 160.777 371.806Z" fill="#303083"/>
            <path d="M260.115 293.834C260.115 293.834 256.919 338.355 233.165 371.916C233.165 371.916 194.343 378.538 160.586 371.916C160.586 371.916 127.137 336.74 117.55 298.616C117.55 298.616 85.6993 234.015 100.108 223.055C114.517 212.095 150.368 193.235 150.368 193.235L223.291 196.814C232.293 202.282 251.484 211.223 270.664 221.266L260.115 293.834Z" fill="#3D3EFF"/>
            <path d="M201.022 279.053C203.928 279.053 206.283 276.698 206.283 273.793C206.283 270.887 203.928 268.532 201.022 268.532C198.117 268.532 195.762 270.887 195.762 273.793C195.762 276.698 198.117 279.053 201.022 279.053Z" fill="#3D3EFF" stroke="white" stroke-width="2.81316" stroke-linejoin="round"/>
            <path d="M201.022 300.344C203.928 300.344 206.283 297.989 206.283 295.084C206.283 292.178 203.928 289.823 201.022 289.823C198.117 289.823 195.762 292.178 195.762 295.084C195.762 297.989 198.117 300.344 201.022 300.344Z" fill="#3D3EFF" stroke="white" stroke-width="2.81316" stroke-linejoin="round"/>
            <path d="M201.022 321.629C203.928 321.629 206.283 319.273 206.283 316.368C206.283 313.463 203.928 311.107 201.022 311.107C198.117 311.107 195.762 313.463 195.762 316.368C195.762 319.273 198.117 321.629 201.022 321.629Z" fill="#3D3EFF" stroke="white" stroke-width="2.81316" stroke-linejoin="round"/>
            <path d="M270.62 221.262C289.794 231.31 346.215 360.626 322.736 374.297C273.979 402.727 260.115 293.841 260.115 293.841L270.62 221.262Z" fill="#3D3EFF"/>
            <path d="M302.222 378.332C308.805 381.145 325.791 375.963 344.667 363.597C363.543 351.23 342.13 343.066 342.13 343.066C342.13 343.066 317.036 332.995 301.727 340.253C286.418 347.511 289.614 372.903 302.222 378.332Z" fill="#A96C6C"/>
            <path d="M404.121 315.243H301.058L187.969 389.269H291.026L404.121 315.243Z" fill="white" stroke="#303083" stroke-width="2.81316" stroke-linejoin="round"/>
            <path d="M366.014 345.782C366.014 343.093 348.921 327.272 342.383 333.247C339.643 335.745 339.486 357.198 339.739 361.069C340.538 373.391 365.873 359.578 366.014 345.782Z" fill="#FFB5B5"/>
            <path d="M100.063 223.055C94.2063 227.702 32.0243 322.37 54.0288 365.963C78.8521 415.171 179.698 374.313 179.698 374.313C179.698 374.313 166.904 370.374 175.124 353.934C175.124 353.934 133.399 331.733 99.8382 338.355C99.8382 338.355 125.866 295.201 128.606 278.305C131.346 261.409 121.072 206.39 100.063 223.055Z" fill="#3D3EFF"/>
            <path d="M201.495 325.125L219.87 366.169" stroke="#653F3F" stroke-width="3.37579" stroke-miterlimit="10"/>
            <path d="M175.152 352.615C175.152 352.615 193.646 342.072 201.033 346.021C209.129 350.342 218.84 364.025 219.729 366.327C220.618 368.628 220.365 371.019 220.224 373.483C220.084 375.948 203.345 375.807 200.127 375.621C196.909 375.436 179.636 377.484 176.62 374.53C165.553 363.693 175.152 352.615 175.152 352.615Z" fill="#FFB5B5"/>
            <path d="M200.121 375.624C203.362 375.81 218.159 375.996 220.044 374.24C223.786 370.769 221.642 365.581 219.769 363.55C218.053 361.682 208.921 350.345 201.027 346.041C201.027 346.041 210.181 361.969 200.121 375.641" fill="#A96C6C"/>
            <path d="M169.7 74.6494C169.7 74.6494 161.48 61.4051 169.7 54.5578C177.92 47.7106 181.302 36.593 196.183 36.5199C211.555 36.4467 217.687 48.4308 224.726 47.2492C234.29 45.6457 240.997 42.5625 253.144 48.9709C262.867 54.1021 263.272 73.3385 273.129 72.3651C280.972 71.5943 289.682 72.0894 294.132 80.8046C297.508 87.4043 293.907 105.234 298.926 110.028C303.944 114.821 315.805 116.385 316.738 128.746C317.976 145.451 300.535 147.91 305.092 161.171C311.09 178.612 302.628 189.561 287.74 191.553C277.27 192.943 258.872 177.375 252.126 188.127C246.37 197.292 234.313 201.371 219.493 195.441C204.674 189.511 195.52 191.328 186.388 195.21C177.257 199.092 166.066 204.567 158.532 197.944C150.999 191.322 141.906 191.137 131.875 195.283C117.955 201.039 103.017 191.576 104.868 179.001C106.404 168.609 92.1416 167.298 90.4875 155.483C88.327 140.05 111.035 136.078 104.413 129.455C97.7904 122.833 98.0268 103.473 117.646 100.907C136.258 98.4881 132.274 86.8923 137.523 78.9648C141.951 72.337 155.775 63.92 169.7 74.6494Z" fill="#653F3F"/>
            <path d="M96.4398 125.823C90.2509 118.813 92.2257 97.2414 111.963 95.8968C130.687 94.6252 127.413 82.8043 133.146 75.2369C137.973 68.8736 154.155 61.278 169.469 74.5674" stroke="#653F3F" stroke-width="1.68789" stroke-miterlimit="10"/>
            <path d="M172.356 131.564C172.215 143.38 172.952 175.962 150.323 193.229C150.323 193.229 190.956 213.636 200.127 258.843C200.127 258.843 206.581 211.194 223.246 196.807C223.246 196.807 203.497 185.611 207.835 131.542L172.356 131.564Z" fill="#FFB5B5"/>
            <path d="M211.555 178.389C208.741 180.932 205.568 182.383 202.125 182.383C187.868 182.383 173.673 160.666 172.305 137.446C172.35 135.162 172.35 133.17 172.373 131.566H207.852C206.069 153.548 208.291 168.453 211.555 178.389Z" fill="#A96C6C"/>
            <path d="M171.073 120.875C171.23 114.934 173.323 83.8876 198.467 85.0297C223.611 86.1719 227.691 111.513 225.44 131.835C223.189 152.157 210.812 165.852 202.153 164.94C193.494 164.029 170.386 145.991 171.073 120.875Z" fill="#FFB5B5"/>
        </g>
    </g>
    <defs>
        <clipPath id="clip0">
            <rect width="356.191" height="745.903" fill="white" transform="translate(49.3367 36.5195)"/>
        </clipPath>
    </defs>
</svg>
