<svg width="60" height="101" viewBox="0 0 60 101" fill="none" xmlns="http://www.w3.org/2000/svg">
    <path d="M59.3898 53.9916C59.3898 67.9627 48.064 79.2885 34.093 79.2885C20.1219 79.2885 8.79614 67.9627 8.79614 53.9916C8.79614 40.0206 20.1219 28.6948 34.093 28.6948C48.064 28.6948 59.3898 40.0206 59.3898 53.9916Z" fill="#F3F3FF"/>
    <path d="M2.01199 58.2227C2.12927 62.6793 4.91974 73.322 14.8318 78.6624C16.1803 79.3889 17.1221 80.7446 17.1221 82.2764V95.2243C17.1221 97.3096 18.8125 99 20.8978 99H34.4901C36.5753 99 38.2657 97.3096 38.2657 95.2243V82.377C38.2657 80.7952 39.2653 79.3952 40.6354 78.6046C44.4211 76.4202 49.4541 71.9536 52.228 65.5881C53.1989 63.3601 53.9486 60.8995 54.1159 58.2227C54.2402 56.2333 54.1783 52.3521 53.1631 48.5977C52.4794 46.0692 51.1605 43.5983 49.9627 41.8015C49.0178 40.3842 48.0064 38.9669 46.5646 37.6483C44.5495 35.8054 42.0538 34.202 40.9011 33.493C38.2732 31.8764 33.0476 30.1902 28.0639 30.0936C23.7394 30.0097 20.7297 30.7281 18.6248 31.6051C16.3348 32.5592 11.4676 35.2114 8.43058 38.7809C4.46404 43.4429 1.79816 50.0969 2.01199 58.2227Z" stroke="#3D3EFF" stroke-width="3.77564"/>
    <path d="M19.0024 85.5957H36.3704" stroke="#FFCD10" stroke-width="3.77564" stroke-linejoin="round"/>
    <path d="M19.0024 91.6367H36.3704" stroke="#FFC9C9" stroke-width="3.77564"/>
    <path d="M15.7563 24.0525L13.4909 20.088L11.2256 16.1236M27.0832 22.5453L27.0832 13.8623M39.9204 24.0526L43.696 15.7463" stroke="#FFCD10" stroke-width="3.77564" stroke-linecap="round" stroke-linejoin="round"/>
</svg>
