<svg width="220" height="197" viewBox="0 0 220 197" fill="none" xmlns="http://www.w3.org/2000/svg">
    <ellipse cx="129.655" cy="88.0197" rx="89.6547" ry="88.0197" fill="#F3F3FF"/>
    <path d="M162.002 42C152.46 42 143.302 46.4403 137.324 53.4296C131.346 46.4403 122.188 42 112.646 42C95.7274 42 82.4834 55.2386 82.4834 72.1501C82.4834 92.844 101.129 109.755 129.372 135.383L137.324 142.592L145.276 135.383C173.519 109.755 192.165 92.844 192.165 72.1501C192.165 55.2386 178.921 42 162.002 42Z" fill="#FFEAEA"/>
    <path d="M126.903 59.3287L128.841 61.5946L130.778 59.3287C136.289 52.886 144.748 48.7917 153.519 48.7917C169.03 48.7917 181.131 60.8896 181.131 76.3918C181.131 85.9004 176.87 94.7405 168.854 104.544C160.809 114.382 149.252 124.876 135.08 137.735C135.079 137.736 135.079 137.736 135.079 137.736L128.841 143.391L122.602 137.736C122.602 137.736 122.602 137.736 122.601 137.735C108.429 124.876 96.8721 114.382 88.8273 104.544C80.811 94.7405 76.55 85.9004 76.55 76.3918C76.55 60.8896 88.6513 48.7917 104.162 48.7917C112.933 48.7917 121.393 52.886 126.903 59.3287Z" stroke="#3D3EFF" stroke-width="5.1"/>
    <path d="M158.23 61.3921C162.674 66.0379 168.896 78.6623 158.23 91.9937" stroke="white" stroke-width="5.1"/>
</svg>
