<svg width="180" height="180" viewBox="0 0 180 180" fill="none" xmlns="http://www.w3.org/2000/svg">
    <circle cx="89.6547" cy="89.6547" r="89.6547" fill="#F3F3FF"/>
    <path d="M119.002 47C109.46 47 100.302 51.4403 94.324 58.4296C88.3464 51.4403 79.188 47 69.6457 47C52.7274 47 39.4834 60.2386 39.4834 77.1501C39.4834 97.844 58.1292 114.755 86.3721 140.383L94.324 147.592L102.276 140.383C130.519 114.755 149.165 97.844 149.165 77.1501C149.165 60.2386 135.921 47 119.002 47Z" fill="#FFEAEA"/>
    <path d="M83.9027 64.3287L85.8406 66.5946L87.7785 64.3287C93.2886 57.886 101.748 53.7917 110.519 53.7917C126.03 53.7917 138.131 65.8896 138.131 81.3918C138.131 90.9004 133.87 99.7405 125.854 109.544C117.809 119.382 106.252 129.876 92.0798 142.735C92.0795 142.736 92.0792 142.736 92.0789 142.736L85.8406 148.391L79.6023 142.736C79.602 142.736 79.6017 142.736 79.6014 142.735C65.4293 129.876 53.8721 119.382 45.8273 109.544C37.811 99.7405 33.55 90.9004 33.55 81.3918C33.55 65.8896 45.6513 53.7917 61.1623 53.7917C69.9335 53.7917 78.3925 57.886 83.9027 64.3287Z" stroke="#3D3EFF" stroke-width="5.1"/>
    <path d="M115.23 66.3921C119.674 71.0379 125.896 83.6623 115.23 96.9937" stroke="white" stroke-width="5.1"/>
</svg>
