<svg width="180" height="177" viewBox="0 0 180 177" fill="none" xmlns="http://www.w3.org/2000/svg">
    <ellipse cx="89.6547" cy="88.0197" rx="89.6547" ry="88.0197" fill="#FFFAF1"/>
    <circle cx="92.0278" cy="92.0256" r="52.8391" fill="#F3F3FF"/>
    <path d="M95.9013 34.3532C97.3838 33.4832 97.8803 31.576 97.0103 30.0935L82.8318 5.93418C81.9618 4.45165 80.0546 3.95514 78.5721 4.8252C77.0895 5.69526 76.593 7.60241 77.4631 9.08495L90.0661 30.5599L68.5912 43.1629C67.1087 44.033 66.6122 45.9402 67.4822 47.4227C68.3523 48.9052 70.2594 49.4017 71.742 48.5317L95.9013 34.3532ZM33.1125 80.5418C33.1125 54.3864 54.6127 33.1125 81.2225 33.1125V26.8875C51.2535 26.8875 26.8875 50.8702 26.8875 80.5418H33.1125ZM81.2225 33.1125C85.4849 33.1125 89.6133 33.6582 93.5417 34.681L95.1101 28.6568C90.6736 27.5018 86.0183 26.8875 81.2225 26.8875V33.1125Z" fill="#FFCD10"/>
    <path d="M121.47 116.533C121.617 118.246 123.124 119.515 124.837 119.369L152.747 116.978C154.46 116.832 155.73 115.324 155.583 113.612C155.436 111.899 153.929 110.629 152.216 110.776L127.407 112.901L125.282 88.0914C125.136 86.3787 123.628 85.1092 121.916 85.2559C120.203 85.4025 118.933 86.9099 119.08 88.6226L121.47 116.533ZM106.026 39.9418C129.981 51.278 140.211 79.8872 128.875 103.842L134.501 106.505C147.308 79.4424 135.752 47.1218 108.689 34.315L106.026 39.9418ZM128.875 103.842C127.058 107.682 124.799 111.165 122.191 114.262L126.952 118.272C129.903 114.769 132.453 110.833 134.501 106.505L128.875 103.842Z" fill="#FFA4A4"/>
    <path d="M35.3362 95.3292C33.8331 94.4952 31.9385 95.0377 31.1045 96.5408L17.5144 121.036C16.6805 122.539 17.223 124.434 18.7261 125.268C20.2292 126.102 22.1238 125.559 22.9578 124.056L35.0379 102.283L56.8113 114.363C58.3144 115.197 60.209 114.654 61.043 113.151C61.8769 111.648 61.3344 109.753 59.8313 108.919L35.3362 95.3292ZM107.513 125.25C84.7391 138.803 55.2898 131.329 41.7361 108.555L36.3868 111.738C51.6987 137.467 84.9684 145.911 110.697 130.599L107.513 125.25ZM41.7361 108.555C39.5637 104.905 37.9331 101.087 36.8184 97.1941L30.8339 98.9076C32.0949 103.311 33.9378 107.624 36.3868 111.738L41.7361 108.555Z" fill="#3D3EFF"/>
</svg>
